<svg width="135" height="39" viewBox="0 0 135 39" fill="none" xmlns="http://www.w3.org/2000/svg">
<circle cx="19.5" cy="19.5" r="19.5" fill="#212121"/>
<path d="M63.7187 12.5108C64.1406 12.7286 64.3516 13.0757 64.3516 13.5521C64.3516 13.8379 64.2495 14.1169 64.0453 14.3891C63.8276 14.675 63.5485 14.8179 63.2083 14.8179C62.9769 14.8179 62.7455 14.7566 62.5141 14.6341C61.8472 14.3211 61.1258 14.1646 60.35 14.1646C59.3972 14.1646 58.5669 14.3687 57.8591 14.7771C57.1514 15.1718 56.6069 15.7366 56.2258 16.4716C55.8447 17.193 55.6541 18.0233 55.6541 18.9624C55.6541 20.5686 56.0829 21.7867 56.9404 22.617C57.8115 23.4473 58.948 23.8624 60.35 23.8624C61.1802 23.8624 61.9016 23.7059 62.5141 23.3928C62.7591 23.284 62.9769 23.2295 63.1674 23.2295C63.5213 23.2295 63.8208 23.3792 64.0658 23.6787C64.2699 23.9373 64.372 24.2163 64.372 24.5157C64.372 24.7335 64.3176 24.9309 64.2087 25.1078C64.0998 25.2848 63.9433 25.4209 63.7391 25.5162C62.6774 26.047 61.5477 26.3124 60.35 26.3124C59.0161 26.3124 57.7911 26.0334 56.675 25.4753C55.5589 24.9037 54.6674 24.0666 54.0004 22.9641C53.3335 21.8616 53 20.5277 53 18.9624C53 17.5741 53.3131 16.3287 53.9392 15.2262C54.5789 14.1237 55.4568 13.2662 56.5729 12.6537C57.689 12.0276 58.948 11.7146 60.35 11.7146C61.5613 11.7146 62.6842 11.98 63.7187 12.5108Z" fill="#212121"/>
<path d="M68.6177 24.8628C68.6177 25.2167 68.502 25.5162 68.2706 25.7612C68.0392 25.9925 67.7466 26.1082 67.3927 26.1082C67.0388 26.1082 66.7462 25.9925 66.5148 25.7612C66.2834 25.5162 66.1677 25.2167 66.1677 24.8628V16.4308C66.1677 16.0769 66.2834 15.7843 66.5148 15.5529C66.7462 15.3079 67.0388 15.1854 67.3927 15.1854C67.7466 15.1854 68.0392 15.3079 68.2706 15.5529C68.502 15.7843 68.6177 16.0769 68.6177 16.4308V24.8628ZM67.3723 13.8583C66.9095 13.8583 66.5828 13.7835 66.3923 13.6337C66.2017 13.484 66.1065 13.2186 66.1065 12.8375V12.4496C66.1065 12.0685 66.2085 11.8031 66.4127 11.6533C66.6169 11.5036 66.9435 11.4287 67.3927 11.4287C67.8691 11.4287 68.2026 11.5036 68.3931 11.6533C68.5837 11.8031 68.6789 12.0685 68.6789 12.4496V12.8375C68.6789 13.2322 68.5769 13.5044 68.3727 13.6541C68.1821 13.7903 67.8487 13.8583 67.3723 13.8583Z" fill="#212121"/>
<path d="M76.791 14.9812C77.7302 14.9812 78.5809 15.2262 79.3431 15.7162C80.1053 16.1926 80.7042 16.8595 81.1397 17.717C81.5889 18.5745 81.8135 19.5477 81.8135 20.6366C81.8135 21.7255 81.5957 22.7055 81.1602 23.5766C80.7246 24.4341 80.1257 25.1078 79.3635 25.5978C78.6149 26.0742 77.7846 26.3124 76.8727 26.3124C76.2193 26.3124 75.6 26.1831 75.0148 25.9245C74.4431 25.6523 73.9667 25.3256 73.5856 24.9445V28.9461C73.5856 29.3 73.4699 29.5927 73.2385 29.824C73.0071 30.069 72.7145 30.1915 72.3606 30.1915C72.0067 30.1915 71.7141 30.0759 71.4827 29.8445C71.2513 29.6131 71.1356 29.3136 71.1356 28.9461V16.4308C71.1356 16.0769 71.2513 15.7843 71.4827 15.5529C71.7141 15.3079 72.0067 15.1854 72.3606 15.1854C72.7145 15.1854 73.0071 15.3079 73.2385 15.5529C73.4699 15.7843 73.5856 16.0769 73.5856 16.4308V16.5125C73.9123 16.1041 74.3682 15.7502 74.9535 15.4508C75.5388 15.1378 76.1513 14.9812 76.791 14.9812ZM76.4848 24.0666C77.3559 24.0666 78.0704 23.7399 78.6285 23.0866C79.1866 22.4333 79.4656 21.6166 79.4656 20.6366C79.4656 19.6566 79.1866 18.8468 78.6285 18.207C78.0841 17.5537 77.3695 17.227 76.4848 17.227C75.6 17.227 74.8787 17.5537 74.3206 18.207C73.7626 18.8468 73.4835 19.6566 73.4835 20.6366C73.4835 21.6166 73.7626 22.4333 74.3206 23.0866C74.8787 23.7399 75.6 24.0666 76.4848 24.0666Z" fill="#212121"/>
<path d="M89.5931 14.9812C90.9406 14.9812 91.873 15.3964 92.3902 16.2266C92.9074 17.0433 93.166 18.1798 93.166 19.6362V24.8628C93.166 25.2167 93.0503 25.5162 92.8189 25.7612C92.5876 25.9925 92.2949 26.1082 91.941 26.1082C91.5872 26.1082 91.2945 25.9925 91.0631 25.7612C90.8317 25.5162 90.716 25.2167 90.716 24.8628V19.6362C90.716 18.8876 90.5663 18.3023 90.2669 17.8804C89.981 17.4448 89.4706 17.227 88.7356 17.227C87.9734 17.227 87.3745 17.4584 86.939 17.9212C86.517 18.3704 86.3061 18.942 86.3061 19.6362V24.8628C86.3061 25.2167 86.1904 25.5162 85.959 25.7612C85.7276 25.9925 85.435 26.1082 85.0811 26.1082C84.7272 26.1082 84.4346 25.9925 84.2032 25.7612C83.9718 25.5162 83.8561 25.2167 83.8561 24.8628V12.2454C83.8561 11.8915 83.9718 11.5989 84.2032 11.3675C84.4346 11.1225 84.7272 11 85.0811 11C85.435 11 85.7276 11.1225 85.959 11.3675C86.1904 11.5989 86.3061 11.8915 86.3061 12.2454V16.7575C86.6736 16.2675 87.1363 15.8523 87.6944 15.5121C88.2661 15.1582 88.899 14.9812 89.5931 14.9812Z" fill="#212121"/>
<path d="M103.825 15.1854C104.178 15.1854 104.471 15.3079 104.702 15.5529C104.934 15.7843 105.05 16.0769 105.05 16.4308V25.1078C105.05 26.8773 104.573 28.1635 103.62 28.9666C102.668 29.7832 101.395 30.1915 99.8025 30.1915C99.3397 30.1915 98.8634 30.1507 98.3734 30.069C97.897 30.001 97.5091 29.9057 97.2096 29.7832C96.5427 29.4974 96.2092 29.1027 96.2092 28.5991C96.2092 28.5038 96.2296 28.3949 96.2705 28.2724C96.3521 27.9729 96.4882 27.7416 96.6788 27.5782C96.883 27.4285 97.1007 27.3536 97.3321 27.3536C97.4682 27.3536 97.5975 27.3741 97.72 27.4149C97.8153 27.4557 97.9786 27.5238 98.21 27.6191C98.455 27.7143 98.7068 27.7892 98.9654 27.8436C99.2377 27.9117 99.5167 27.9457 99.8025 27.9457C100.769 27.9457 101.477 27.7348 101.926 27.3128C102.389 26.9045 102.62 26.1967 102.62 25.1895V24.9853C101.912 25.87 100.81 26.3124 99.3125 26.3124C98.6048 26.3124 97.9786 26.1491 97.4342 25.8224C96.8898 25.4821 96.4678 25.0194 96.1684 24.4341C95.8689 23.8352 95.7192 23.1546 95.7192 22.3924V16.4308C95.7192 16.0769 95.8349 15.7843 96.0663 15.5529C96.2977 15.3079 96.5903 15.1854 96.9442 15.1854C97.2981 15.1854 97.5907 15.3079 97.8221 15.5529C98.0535 15.7843 98.1692 16.0769 98.1692 16.4308V21.6574C98.1692 22.5149 98.3529 23.1342 98.7204 23.5153C99.1016 23.8828 99.6528 24.0666 100.374 24.0666C101.082 24.0666 101.626 23.8624 102.008 23.4541C102.402 23.0321 102.6 22.4333 102.6 21.6574V16.4308C102.6 16.0769 102.715 15.7843 102.947 15.5529C103.178 15.3079 103.471 15.1854 103.825 15.1854Z" fill="#212121"/>
<path d="M113.378 14.9812C113.786 14.9812 114.126 15.0969 114.399 15.3283C114.684 15.5597 114.827 15.8319 114.827 16.145C114.827 16.5669 114.718 16.8868 114.501 17.1045C114.283 17.3087 114.024 17.4108 113.725 17.4108C113.521 17.4108 113.289 17.3632 113.031 17.2679C112.99 17.2543 112.895 17.227 112.745 17.1862C112.609 17.1454 112.459 17.125 112.296 17.125C111.942 17.125 111.602 17.2338 111.275 17.4516C110.948 17.6694 110.676 18.0029 110.458 18.452C110.254 18.8876 110.152 19.4116 110.152 20.0241V24.8628C110.152 25.2167 110.036 25.5162 109.805 25.7612C109.573 25.9925 109.281 26.1082 108.927 26.1082C108.573 26.1082 108.28 25.9925 108.049 25.7612C107.818 25.5162 107.702 25.2167 107.702 24.8628V16.4308C107.702 16.0769 107.818 15.7843 108.049 15.5529C108.28 15.3079 108.573 15.1854 108.927 15.1854C109.281 15.1854 109.573 15.3079 109.805 15.5529C110.036 15.7843 110.152 16.0769 110.152 16.4308V16.6962C110.465 16.1382 110.914 15.7162 111.499 15.4304C112.085 15.1309 112.711 14.9812 113.378 14.9812Z" fill="#212121"/>
<path d="M115.184 26.0878C114.789 26.0878 114.483 25.9857 114.265 25.7816C114.061 25.5638 113.959 25.2575 113.959 24.8628V24.5157C113.959 24.121 114.061 23.8216 114.265 23.6174C114.483 23.3996 114.789 23.2908 115.184 23.2908H115.45C115.844 23.2908 116.144 23.3996 116.348 23.6174C116.566 23.8216 116.675 24.121 116.675 24.5157V24.8628C116.675 25.2575 116.566 25.5638 116.348 25.7816C116.144 25.9857 115.844 26.0878 115.45 26.0878H115.184Z" fill="#212121"/>
<path d="M121.493 24.8628C121.493 25.2167 121.378 25.5162 121.146 25.7612C120.915 25.9925 120.622 26.1082 120.268 26.1082C119.914 26.1082 119.622 25.9925 119.39 25.7612C119.159 25.5162 119.043 25.2167 119.043 24.8628V16.4308C119.043 16.0769 119.159 15.7843 119.39 15.5529C119.622 15.3079 119.914 15.1854 120.268 15.1854C120.622 15.1854 120.915 15.3079 121.146 15.5529C121.378 15.7843 121.493 16.0769 121.493 16.4308V24.8628ZM120.248 13.8583C119.785 13.8583 119.458 13.7835 119.268 13.6337C119.077 13.484 118.982 13.2186 118.982 12.8375V12.4496C118.982 12.0685 119.084 11.8031 119.288 11.6533C119.493 11.5036 119.819 11.4287 120.268 11.4287C120.745 11.4287 121.078 11.5036 121.269 11.6533C121.459 11.8031 121.555 12.0685 121.555 12.4496V12.8375C121.555 13.2322 121.453 13.5044 121.248 13.6541C121.058 13.7903 120.724 13.8583 120.248 13.8583Z" fill="#212121"/>
<path d="M134.505 20.657C134.505 21.7459 134.26 22.7259 133.77 23.597C133.28 24.4545 132.607 25.1214 131.749 25.5978C130.905 26.0742 129.973 26.3124 128.952 26.3124C127.918 26.3124 126.978 26.0742 126.135 25.5978C125.291 25.1214 124.624 24.4545 124.134 23.597C123.644 22.7259 123.399 21.7459 123.399 20.657C123.399 19.5681 123.644 18.595 124.134 17.7375C124.624 16.8664 125.291 16.1926 126.135 15.7162C126.978 15.2262 127.918 14.9812 128.952 14.9812C129.973 14.9812 130.905 15.2262 131.749 15.7162C132.607 16.1926 133.28 16.8664 133.77 17.7375C134.26 18.595 134.505 19.5681 134.505 20.657ZM132.055 20.657C132.055 19.9901 131.912 19.398 131.627 18.8808C131.354 18.35 130.98 17.9416 130.504 17.6558C130.041 17.37 129.524 17.227 128.952 17.227C128.38 17.227 127.856 17.37 127.38 17.6558C126.917 17.9416 126.543 18.35 126.257 18.8808C125.985 19.398 125.849 19.9901 125.849 20.657C125.849 21.324 125.985 21.916 126.257 22.4333C126.543 22.9505 126.917 23.352 127.38 23.6378C127.856 23.9237 128.38 24.0666 128.952 24.0666C129.524 24.0666 130.041 23.9237 130.504 23.6378C130.98 23.352 131.354 22.9505 131.627 22.4333C131.912 21.916 132.055 21.324 132.055 20.657Z" fill="#212121"/>
<rect x="10" y="14" width="34" height="12" rx="6" fill="#EA4C55"/>
</svg>
