<svg width="11" height="11" viewBox="0 0 11 11" fill="none" xmlns="http://www.w3.org/2000/svg">
<path d="M10.008 4.6396C10.3019 4.6396 10.5371 4.73399 10.7134 4.92277C10.9045 5.09703 11 5.32937 11 5.6198C11 5.89571 10.9045 6.12079 10.7134 6.29505C10.5371 6.46931 10.3019 6.55644 10.008 6.55644H6.61323V9.88911C6.61323 10.2086 6.51035 10.4772 6.30461 10.695C6.09886 10.8983 5.82699 11 5.48898 11C5.16566 11 4.89379 10.8983 4.67335 10.695C4.4676 10.4772 4.36473 10.2086 4.36473 9.88911V6.55644H0.991984C0.712759 6.55644 0.477622 6.46205 0.286573 6.27327C0.0955244 6.08449 0 5.85215 0 5.57624C0 5.30033 0.0881763 5.07525 0.264529 4.90099C0.455578 4.72673 0.698063 4.6396 0.991984 4.6396H4.36473V1.08911C4.36473 0.769637 4.4676 0.508251 4.67335 0.304951C4.89379 0.101651 5.16566 0 5.48898 0C5.82699 0 6.09886 0.101651 6.30461 0.304951C6.51035 0.508251 6.61323 0.769637 6.61323 1.08911V4.6396H10.008Z" fill="#CDCDCD"/>
</svg>
