<svg width="238" height="69" viewBox="0 0 238 69" fill="none" xmlns="http://www.w3.org/2000/svg">
<circle cx="34.5" cy="34.5" r="34.5" fill="#212121"/>
<path d="M112.733 22.1345C113.48 22.5198 113.853 23.1339 113.853 23.9767C113.853 24.4824 113.672 24.9761 113.311 25.4577C112.926 25.9634 112.432 26.2163 111.83 26.2163C111.421 26.2163 111.011 26.1079 110.602 25.8912C109.422 25.3373 108.146 25.0604 106.773 25.0604C105.087 25.0604 103.618 25.4216 102.366 26.144C101.114 26.8424 100.151 27.8418 99.4765 29.1421C98.8022 30.4184 98.4651 31.8874 98.4651 33.549C98.4651 36.3905 99.2236 38.5458 100.741 40.0147C102.282 41.4837 104.293 42.2181 106.773 42.2181C108.242 42.2181 109.518 41.9412 110.602 41.3873C111.035 41.1947 111.421 41.0984 111.758 41.0984C112.384 41.0984 112.914 41.3633 113.347 41.893C113.708 42.3506 113.889 42.8442 113.889 43.374C113.889 43.7593 113.793 44.1085 113.6 44.4216C113.407 44.7346 113.13 44.9754 112.769 45.144C110.891 46.0831 108.892 46.5527 106.773 46.5527C104.413 46.5527 102.246 46.0591 100.271 45.0717C98.2965 44.0603 96.7192 42.5794 95.5392 40.6288C94.3593 38.6782 93.7693 36.3183 93.7693 33.549C93.7693 31.0927 94.3232 28.8893 95.4309 26.9387C96.5627 24.9881 98.1159 23.471 100.091 22.3874C102.065 21.2797 104.293 20.7258 106.773 20.7258C108.916 20.7258 110.903 21.1954 112.733 22.1345Z" fill="#212121"/>
<path d="M121.401 43.9881C121.401 44.6142 121.196 45.144 120.787 45.5774C120.377 45.9868 119.859 46.1915 119.233 46.1915C118.607 46.1915 118.089 45.9868 117.68 45.5774C117.271 45.144 117.066 44.6142 117.066 43.9881V29.0699C117.066 28.4438 117.271 27.926 117.68 27.5167C118.089 27.0832 118.607 26.8665 119.233 26.8665C119.859 26.8665 120.377 27.0832 120.787 27.5167C121.196 27.926 121.401 28.4438 121.401 29.0699V43.9881ZM119.197 24.5186C118.378 24.5186 117.8 24.3861 117.463 24.1212C117.126 23.8563 116.958 23.3868 116.958 22.7125V22.0262C116.958 21.3519 117.138 20.8823 117.499 20.6174C117.861 20.3525 118.439 20.2201 119.233 20.2201C120.076 20.2201 120.666 20.3525 121.003 20.6174C121.34 20.8823 121.509 21.3519 121.509 22.0262V22.7125C121.509 23.4108 121.328 23.8925 120.967 24.1574C120.63 24.3982 120.04 24.5186 119.197 24.5186Z" fill="#212121"/>
<path d="M135.861 26.5053C137.523 26.5053 139.028 26.9387 140.376 27.8056C141.725 28.6485 142.784 29.8284 143.555 31.3455C144.35 32.8626 144.747 34.5844 144.747 36.5109C144.747 38.4374 144.362 40.1712 143.591 41.7124C142.821 43.2295 141.761 44.4216 140.412 45.2885C139.088 46.1313 137.619 46.5527 136.006 46.5527C134.85 46.5527 133.754 46.324 132.718 45.8664C131.707 45.3848 130.864 44.8068 130.19 44.1326V51.2124C130.19 51.8385 129.985 52.3563 129.576 52.7656C129.167 53.1991 128.649 53.4158 128.023 53.4158C127.397 53.4158 126.879 53.2111 126.469 52.8018C126.06 52.3924 125.855 51.8626 125.855 51.2124V29.0699C125.855 28.4438 126.06 27.926 126.469 27.5167C126.879 27.0832 127.397 26.8665 128.023 26.8665C128.649 26.8665 129.167 27.0832 129.576 27.5167C129.985 27.926 130.19 28.4438 130.19 29.0699V29.2144C130.768 28.4919 131.575 27.8658 132.61 27.336C133.646 26.7822 134.729 26.5053 135.861 26.5053ZM135.319 42.5794C136.86 42.5794 138.125 42.0014 139.112 40.8455C140.099 39.6896 140.593 38.2448 140.593 36.5109C140.593 34.7771 140.099 33.3443 139.112 32.2125C138.149 31.0566 136.885 30.4786 135.319 30.4786C133.754 30.4786 132.478 31.0566 131.49 32.2125C130.503 33.3443 130.009 34.7771 130.009 36.5109C130.009 38.2448 130.503 39.6896 131.49 40.8455C132.478 42.0014 133.754 42.5794 135.319 42.5794Z" fill="#212121"/>
<path d="M158.511 26.5053C160.895 26.5053 162.545 27.2397 163.46 28.7087C164.375 30.1535 164.832 32.1643 164.832 34.741V43.9881C164.832 44.6142 164.628 45.144 164.218 45.5774C163.809 45.9868 163.291 46.1915 162.665 46.1915C162.039 46.1915 161.521 45.9868 161.112 45.5774C160.702 45.144 160.498 44.6142 160.498 43.9881V34.741C160.498 33.4165 160.233 32.381 159.703 31.6345C159.197 30.8639 158.294 30.4786 156.994 30.4786C155.645 30.4786 154.586 30.888 153.815 31.7068C153.069 32.5014 152.695 33.5128 152.695 34.741V43.9881C152.695 44.6142 152.491 45.144 152.081 45.5774C151.672 45.9868 151.154 46.1915 150.528 46.1915C149.902 46.1915 149.384 45.9868 148.975 45.5774C148.566 45.144 148.361 44.6142 148.361 43.9881V21.665C148.361 21.0389 148.566 20.5211 148.975 20.1117C149.384 19.6783 149.902 19.4615 150.528 19.4615C151.154 19.4615 151.672 19.6783 152.081 20.1117C152.491 20.5211 152.695 21.0389 152.695 21.665V29.6478C153.346 28.7809 154.164 28.0464 155.152 27.4444C156.163 26.8183 157.283 26.5053 158.511 26.5053Z" fill="#212121"/>
<path d="M183.69 26.8665C184.316 26.8665 184.834 27.0832 185.243 27.5167C185.652 27.926 185.857 28.4438 185.857 29.0699V44.4216C185.857 47.5521 185.014 49.8277 183.328 51.2485C181.643 52.6934 179.391 53.4158 176.574 53.4158C175.755 53.4158 174.912 53.3436 174.045 53.1991C173.202 53.0787 172.516 52.9101 171.986 52.6934C170.806 52.1877 170.216 51.4893 170.216 50.5983C170.216 50.4298 170.252 50.2371 170.325 50.0204C170.469 49.4906 170.71 49.0812 171.047 48.7923C171.408 48.5274 171.794 48.3949 172.203 48.3949C172.444 48.3949 172.673 48.431 172.889 48.5033C173.058 48.5755 173.347 48.6959 173.756 48.8645C174.19 49.0331 174.635 49.1655 175.093 49.2618C175.574 49.3822 176.068 49.4424 176.574 49.4424C178.284 49.4424 179.536 49.0692 180.33 48.3227C181.149 47.6002 181.559 46.348 181.559 44.566V44.2048C180.306 45.7701 178.356 46.5527 175.707 46.5527C174.455 46.5527 173.347 46.2638 172.384 45.6858C171.42 45.0838 170.674 44.265 170.144 43.2295C169.614 42.17 169.349 40.9659 169.349 39.6174V29.0699C169.349 28.4438 169.554 27.926 169.964 27.5167C170.373 27.0832 170.891 26.8665 171.517 26.8665C172.143 26.8665 172.661 27.0832 173.07 27.5167C173.479 27.926 173.684 28.4438 173.684 29.0699V38.317C173.684 39.8341 174.009 40.9298 174.659 41.6041C175.334 42.2543 176.309 42.5794 177.585 42.5794C178.837 42.5794 179.801 42.2181 180.475 41.4957C181.173 40.7492 181.522 39.6896 181.522 38.317V29.0699C181.522 28.4438 181.727 27.926 182.136 27.5167C182.546 27.0832 183.064 26.8665 183.69 26.8665Z" fill="#212121"/>
<path d="M200.591 26.5053C201.314 26.5053 201.916 26.7099 202.398 27.1193C202.903 27.5287 203.156 28.0103 203.156 28.5642C203.156 29.3107 202.963 29.8766 202.578 30.2619C202.193 30.6231 201.735 30.8037 201.206 30.8037C200.844 30.8037 200.435 30.7194 199.977 30.5509C199.905 30.5268 199.737 30.4786 199.472 30.4064C199.231 30.3341 198.966 30.298 198.677 30.298C198.051 30.298 197.449 30.4907 196.871 30.876C196.293 31.2613 195.811 31.8512 195.426 32.6459C195.065 33.4165 194.884 34.3436 194.884 35.4273V43.9881C194.884 44.6142 194.68 45.144 194.27 45.5774C193.861 45.9868 193.343 46.1915 192.717 46.1915C192.091 46.1915 191.573 45.9868 191.164 45.5774C190.754 45.144 190.55 44.6142 190.55 43.9881V29.0699C190.55 28.4438 190.754 27.926 191.164 27.5167C191.573 27.0832 192.091 26.8665 192.717 26.8665C193.343 26.8665 193.861 27.0832 194.27 27.5167C194.68 27.926 194.884 28.4438 194.884 29.0699V29.5395C195.438 28.5521 196.233 27.8056 197.268 27.2999C198.304 26.7701 199.412 26.5053 200.591 26.5053Z" fill="#212121"/>
<path d="M203.787 46.1554C203.089 46.1554 202.547 45.9748 202.162 45.6136C201.801 45.2283 201.62 44.6864 201.62 43.9881V43.374C201.62 42.6757 201.801 42.1459 202.162 41.7847C202.547 41.3994 203.089 41.2067 203.787 41.2067H204.257C204.955 41.2067 205.485 41.3994 205.846 41.7847C206.232 42.1459 206.424 42.6757 206.424 43.374V43.9881C206.424 44.6864 206.232 45.2283 205.846 45.6136C205.485 45.9748 204.955 46.1554 204.257 46.1554H203.787Z" fill="#212121"/>
<path d="M214.95 43.9881C214.95 44.6142 214.745 45.144 214.336 45.5774C213.926 45.9868 213.409 46.1915 212.783 46.1915C212.156 46.1915 211.639 45.9868 211.229 45.5774C210.82 45.144 210.615 44.6142 210.615 43.9881V29.0699C210.615 28.4438 210.82 27.926 211.229 27.5167C211.639 27.0832 212.156 26.8665 212.783 26.8665C213.409 26.8665 213.926 27.0832 214.336 27.5167C214.745 27.926 214.95 28.4438 214.95 29.0699V43.9881ZM212.746 24.5186C211.928 24.5186 211.35 24.3861 211.013 24.1212C210.675 23.8563 210.507 23.3868 210.507 22.7125V22.0262C210.507 21.3519 210.687 20.8823 211.049 20.6174C211.41 20.3525 211.988 20.2201 212.783 20.2201C213.625 20.2201 214.215 20.3525 214.552 20.6174C214.89 20.8823 215.058 21.3519 215.058 22.0262V22.7125C215.058 23.4108 214.878 23.8925 214.516 24.1574C214.179 24.3982 213.589 24.5186 212.746 24.5186Z" fill="#212121"/>
<path d="M237.971 36.547C237.971 38.4735 237.538 40.2074 236.671 41.7486C235.804 43.2657 234.612 44.4456 233.095 45.2885C231.602 46.1313 229.952 46.5527 228.146 46.5527C226.316 46.5527 224.654 46.1313 223.161 45.2885C221.668 44.4456 220.488 43.2657 219.621 41.7486C218.754 40.2074 218.321 38.4735 218.321 36.547C218.321 34.6206 218.754 32.8988 219.621 31.3817C220.488 29.8405 221.668 28.6485 223.161 27.8056C224.654 26.9387 226.316 26.5053 228.146 26.5053C229.952 26.5053 231.602 26.9387 233.095 27.8056C234.612 28.6485 235.804 29.8405 236.671 31.3817C237.538 32.8988 237.971 34.6206 237.971 36.547ZM233.637 36.547C233.637 35.3671 233.384 34.3196 232.878 33.4045C232.396 32.4653 231.734 31.7429 230.891 31.2372C230.073 30.7315 229.157 30.4786 228.146 30.4786C227.135 30.4786 226.208 30.7315 225.365 31.2372C224.546 31.7429 223.884 32.4653 223.378 33.4045C222.896 34.3196 222.656 35.3671 222.656 36.547C222.656 37.727 222.896 38.7745 223.378 39.6896C223.884 40.6047 224.546 41.3151 225.365 41.8208C226.208 42.3265 227.135 42.5794 228.146 42.5794C229.157 42.5794 230.073 42.3265 230.891 41.8208C231.734 41.3151 232.396 40.6047 232.878 39.6896C233.384 38.7745 233.637 37.727 233.637 36.547Z" fill="#212121"/>
<rect x="17.6924" y="24.7692" width="60.1538" height="21.2308" rx="10.6154" fill="#EA4C55"/>
</svg>
